<?xml version="1.0" encoding="UTF-8"?>
<svg id="Layer_1" data-name="Layer 1" xmlns="http://www.w3.org/2000/svg" viewBox="0 0 478.59 396.91">
  <defs>
    <style>
      .cls-1 {
        fill: #344155;
      }

      .cls-2 {
        fill: #868586;
      }

      .cls-3 {
        fill: #a3a3a4;
      }

      .cls-4 {
        fill: #3c4172;
      }

      .cls-5 {
        font-family: Arial-BoldItalicMT, Arial;
        font-size: 60px;
        font-style: italic;
        font-weight: 700;
      }

      .cls-6 {
        fill: #4b4a4b;
      }

      .cls-7 {
        fill: #bd6a3f;
      }

      .cls-8 {
        fill: #b7683f;
      }

      .cls-9 {
        fill: #e7a267;
      }

      .cls-10 {
        fill: #a6cf44;
      }

      .cls-11 {
        fill: #e49d64;
      }

      .cls-12 {
        fill: #f8d2a9;
      }

      .cls-13 {
        fill: #bd6d3f;
      }

      .cls-14 {
        fill: #8aa986;
      }

      .cls-15 {
        fill: #facda4;
      }

      .cls-16 {
        fill: #e0e0df;
      }

      .cls-17 {
        fill: #f4d2af;
      }

      .cls-18 {
        fill: #f6d1af;
      }

      .cls-19 {
        fill: #3c4180;
      }

      .cls-20, .cls-21 {
        fill: #5d60ab;
      }

      .cls-22 {
        fill: #9b9b9b;
      }

      .cls-23 {
        fill: #be6b3f;
      }

      .cls-24 {
        fill: #f4a261;
      }

      .cls-25 {
        fill: #a0a0a0;
      }

      .cls-26 {
        fill: #e9a367;
      }

      .cls-27 {
        fill: #020202;
      }

      .cls-28 {
        fill: #bd683d;
      }

      .cls-29 {
        fill: #d7d7d7;
      }

      .cls-21 {
        letter-spacing: -.04em;
      }

      .cls-30 {
        fill: #3c4082;
      }

      .cls-31 {
        fill: #3c407f;
      }

      .cls-32 {
        fill: #8fb185;
      }

      .cls-33 {
        fill: #7783c0;
      }

      .cls-34 {
        fill: #ba673e;
      }

      .cls-35 {
        fill: #e09c65;
      }

      .cls-36 {
        fill: #abaaaa;
      }

      .cls-37 {
        fill: #9e9e9e;
      }

      .cls-38 {
        fill: #dbdada;
      }

      .cls-39 {
        fill: #f7d6b2;
      }

      .cls-40 {
        fill: #d88d56;
      }

      .cls-41 {
        fill: #e6a064;
      }

      .cls-42 {
        fill: #9f9e9f;
      }

      .cls-43 {
        fill: #00a6b6;
      }

      .cls-44 {
        fill: #4c4c4c;
      }

      .cls-45 {
        fill: #e6a065;
      }

      .cls-46 {
        fill: #f9d5ae;
      }

      .cls-47 {
        fill: #3c4080;
      }
    </style>
  </defs>
  <text class="cls-5" transform="translate(3.13 374.32)"><tspan class="cls-43" x="0" y="0">LFP</tspan><tspan class="cls-1" x="113.32" y="0">-</tspan><tspan class="cls-21" x="133.3" y="0">T</tspan><tspan class="cls-20" x="167.72" y="0">ensor</tspan><tspan class="cls-24" x="331.11" y="0">Pipe</tspan></text>
  <g id="_1XPWnH" data-name="1XPWnH">
    <path class="cls-33" d="M342.26,177.86c4.38.33,8.77.41,13.17.24,3.37.27,4.42.75,2.36,3.85-2.74.34-5.5.44-8.26.3-.27,1.35-.63,2.65-1.09,3.92-.07.51-.19,1.25-.58,1.35-1.79.49-3.75.09-5.51-.3-6.43-2.06-15.18-2.71-21.93-2.14-.81.74-1.48.73-2.02-.03-1.07,1.29-2.3,2.28-3.67,2.97-20.42,1.41-39.37,9.25-56.68,19.81l-31.81,19.99c-17.93,11.24-36.91,20.25-57.5,25.25-16.37,3.98-36.84,6.19-53.67,5.19-1.65-.1-3.27-.4-4.87-.81-.08-.02,1.67-.12.83.81-3.48-1.06-7.07-2.28-10.52-4.03-2.62-1.33-5.38-.32-8.22-.3l-15.5.15c-2.65.03-5.22.02-7.34-1.05-.07-.43.05-.78.39-1.01,14.66,1,30.18.95,44.49-3.08,13.47-5.7,27.54-10.23,42.22-13.6l13.74-1.56c1.17-.16,1.11-1.9.07-1.94-18.64-.69-36.04,4.94-52.83,11.75-12.94,3.61-34.51,8.38-47.57,4.1-15.12-4.96-26.49-15.79-32.71-30.35-3.46-8.09-4.94-17.34-1.1-25.58s16.33-18.27,23.84-23.11c1.77-1.83,2.5-.8,3.43.92l1.1-.06,28.44,69.1c7.79,8.99,23.38,2.65,22.21-9.66l-22.46-55.31.73-.96c.06-.47.39-1.11.71-1,12.18,6.72,23.8,1.8,34.41-5.58,2.17-1.14,3.7-.64,5.63.6l8.2,8.07c2.38,1.32,4.44.57,5.54-1.95l5.71-22.18c1.79-2.32,2.97-.11,3.67,2l10.93,48.43c1.2,2.84,3.79,3.39,5.32.77l9.48-69.33c.39-2.09,1.08-5.4,3.37-3.08l12.98,80.07c1.03,4.36,3.53,5.73,5.88,1.25,2.57-16.09,4.92-32.31,7.04-48.66.16-2.51.88-4.59,2.17-6.22l1.45.49c3.71,11.54,7.17,23.12,10.4,34.74,3.8,8.66,6.83-.2,7.94-5.03l1.21-.36c2.12-7.72,4.48-15.38,7.06-22.99.81-.81,1.58-.23,2.3,1.74l1.13.03,5.47,13.07c.51.82,1.5,2.01,2.47,2.18,2.3.4,5.76-3.22,7.23-4.76,4.64-6.17,8.01-8.53,15.93-7.13l26.13,7.96c6.29,1.89,12.88,3.23,19.48,2.61l-7.48-1.72-36.87-12.57c-6.24-1.46-9.36-1.57-14.66,2.4l-7.31,6.99c-.75.28-1.4.05-1.98-.47l-8.93-20.35c-1.57-2.21-3.63-2.28-5.22-.12l-9.03,28.27c-1.88,2.14-2.8.21-3.7-1.7l-9.42-32.49.82-.89-1.34-4.83c-1.57-3.44-5.51-4.51-7.44-.77-2.47,15.81-4.85,31.67-7.12,47.56-1.08-.13-1.69-1.09-1.81-2.87-3.93-23.34-7.72-46.77-11.37-70.28l-1.22-.91-1.29-7.28c-1.15-3.39-4.29-3.42-5.68-.16-3.19,24.94-6.47,49.8-9.85,74.58-.56,1.77-.97,2.83-2.8,1.24l-10.84-45c-1.61-3.3-4.2-3.07-5.72.19-2.56,10.2-5.21,20.39-7.92,30.56l-1.58.92c-2.33-1.5-4.45-3.38-6.37-5.64-3.29-2.74-6.09-2.28-9.77-.6l-11.02,6.44c-2.87,1.59-5.78,2.62-9.05,2.81s-10.36.07-13.14-.6c-.43-.1-.8-.36-1.15-.63-.4.11-1.02.21-1.14-.05-3.04-6.6-6.41-14.73-8.83-21.58-1.04-1.62-1.17-2.83-.37-3.65l-.35-2.54c11.86-16.3,27.52-30.12,45.74-39.05,6.7-3.28,13.91-5.51,21.39-5.14,16.3-16.16,41.55-18.71,61.37-7.71,1.51.6,2.89.48,4.39-.11,21.89-12.28,50.13-5.79,65.02,14.24,24.85-1.97,49.59,13.29,54.29,39.14,9.93,5.93,20.16,15.01,22.62,27.19l-14.32.29c-.37,2.13-.35,4.23.06,6.32Z"/>
    <path class="cls-33" d="M313.74,214.16c.42.4.96,4.33.84,4.53-.17.27-.42.49-.71.66-11.48.66-23.18,1.61-34.13,5.87,11.43-2.59,22.91-3.76,34.43-3.5.72.2,1.27.77,1.66,1.72l1.1-.02c.57,1.01,1.37,1.92,2.54,2.16,1.51.31,16.66.26,18.18-.05l3.46-1.8c16.55-.54,33.09-.61,49.61-.23,1.15-.01,1.68.34,1.33,1.54h-44.52c-1.91,2.25-4.02,3.93-5.76,6.2-.67.87-.49,2.34-1.61,2.64-1-.33-.95-.85-.59-1.69l-5.84.02c-10.1,21.45-33.96,27.86-55.69,22.74-15.09,8.41-31.86,8.88-47.79,2.46,1.87,1.68,3.24,3.54,4.11,5.59-13.35,8.2-25.3,18.31-32.73,32.39l-6.73,15.48c-4.31,1.32-16.38,1.28-19.43-1.9-2.42-2.53,7.83-26.46,10.46-31.85-16.83,5.12-36.58,4.11-50.2-8.08-1.34-1.2-5.28-4.77-4.61-6.33.19-.44,1.07-.58,2.16-.63,12.94-.53,25.8-2.29,38.35-5.49,31.68-8.07,57.31-24.59,84.03-42.42,17.71-11.03,37.76-21.11,58.92-21.47-.39,7.26-.66,14.41-.81,21.44Z"/>
    <path class="cls-31" d="M318.4,185.05c-1.49,1.65-2.6,3.54-2.93,6.02l-1.01,7.69c-.68,5.2,0,10.35-.2,15.4-.15.45-.32.45-.52,0l.08-15.52c0-1.72.93-3.32.27-5.19-15.31.56-33.95,7.68-47.34,15.31-27.21,15.52-43.36,30.32-73.93,42.13-19.6,7.57-39.62,11.66-61.28,12.25,13.53,17.02,36.63,19.07,56.28,12.18l-6.26,14.21c-2.66,6.03-4.53,12.22-5.35,19.04,5.81,2.35,12.11,2.62,18.15,1.49.98-1.55,1.01-3,1.62-4.69,6.68-18.53,20.23-33.33,37.64-42.66-2.11-2.64-4.23-3.87-5.73-6.82,3.07.4,5.58,1.57,8.5,2.47,13.07,4.05,26.82,3.29,38.8-3.41,1.34-.75,2.64-1.31,4.28-.95,22.17,4.91,43.01-1.7,53.62-22.53,2.65-.54,5.04-.45,7.57-.25.07,1.15-.36,1.85-.53,2.66-8.47,18.36-27.69,29.73-48.15,28.55-3.53-.2-6.7.03-10.02-1.05-2.03-.53-3.74.17-5.49,1.16-6.66,3.77-14.1,5.14-21.64,5.28l-13.78.25c-3.05.06-5.9,1.8-8.41,3.44-7.21,4.7-13.44,10.2-18.89,16.84-5.71,6.95-9.42,14.67-11.85,23.32-.59,2.1-1.77,4.3-4.24,4.81-8.78,1.81-18.13,1.11-26.51-2.35-6.26-2.58,2.8-23.32,4.34-28.27-6.83.31-13.15.59-19.58-.56-15.17-2.73-27.72-11.8-35.61-24.83-3.47-.41-6.37-1.33-9.31-2.23-.05-.62-1.17-.22-1.05-1.16,29.13.88,55.24-1.7,82.14-12.68,14.09-5.76,26.92-13.2,39.73-21.34l16.61-10.55c21.8-13.86,41.1-23.85,67.56-25.64.74-.05,1.56-2,2.39-1.84Z"/>
    <path class="cls-47" d="M393.08,172.21l-27.46-.23c-4.26-.04-8.2-.55-12.47-.32-3.58.2-7.1-.35-10.68.15-.46,2.16-.12,4.16-.21,6.05-1.14-1.83-.4-4.22-.34-6.62l13.91-.21c-2.93-8.76-8.31-16.26-15.79-21.55l-7.02-4.97c-4.78-23-23.35-37.61-46.55-38.51l-7.39-.29c-14.72-19.32-41.29-26.23-63.04-14.61-2.94,1.57-5.05,1.36-7.89-.13-19.45-10.24-43.03-7.02-58.94,8.41-5.79.03-11.28.86-16.61,3.06-19.47,8.04-36.47,22.88-49.15,39.43-.86,1.12-1.41,2.19-1.41,3.32l-4.78-10.91c.35.29.83.59,1.22.46.42-.14.68-.5.97-.92,5.93-7.84,12.74-14.3,19.61-21.35,12.51-12.82,29.47-20.37,47.49-20.3,17.29-15.22,41.82-18.44,62.48-8.67,1.36.64,2.59,1.08,4.05,1.02,24.1-12.22,52.88-5.94,69.88,14.52,15.82-.87,30.46,4.86,41.75,15.54,7.33,6.94,11.96,15.74,14.95,25.44,11.66,8.37,19.56,16.58,23.52,31.13l29.38-.05c.64,0,.56.83.5,1.1Z"/>
    <path class="cls-19" d="M63.39,169.57c-.18-.15-1.05-1.33-1.61-.93-6.93,4.86-13.26,10.07-19.28,15.96-11.97,11.71-8.14,27.7,0,40.4,6.96,10.86,13.9,16.04,25.76,20.96,5.99,2.48,11.97,2.59,18.36,2.03l6.3-.56c27.27-2.42,28.42-8.9,53.2-14.25,8.02-1.73,15.78-2.83,24.01-2.39,1.39.07,2.15,1.01,2.02,2.27-.09.85-.79,1.72-2.07,1.79-13.07.71-25.54,3.66-37.75,8.33l-17.2,6.58c-9.24,3.53-30.34,4.33-40.4,3.65l-5.29-.36c-11.87-4.13-23.45-11.57-31.41-21.82-6.09-7.84-8.58-18.23-9.41-27.83s2.41-17.38,8.22-24.07c3.68-4.23,7.78-7.64,12.04-11.25,3.22-2.72,6.67-4.85,10.42-6.73.41-.21.26-.98.34-1.18,1.51,3.23,2.52,6.37,3.76,9.39Z"/>
    <path class="cls-30" d="M315.84,223.45l-1.17-.5c-4.1-1.76-34.71,2.26-41.19,5.07-.17-.08-.62-.51-.55-.63s.27-.44.55-.57c9.49-4.55,19.5-6.82,30.03-7.83,3.62-.35,7.04-.02,10.66-.69l-.42-4.13h.52c.61,3.07.73,6.26,1.57,9.29Z"/>
    <path class="cls-10" d="M189.79,114.57c3.65,23.56,7.46,47.08,11.42,70.55.28,1.47.75,2.77,1.94,1.76l6.27-43.98c1.75-9.52,8.99-4.32,9.43,2.85l9.01,30.9c.46,1.59.53,3.2,2.11,4.44l9.13-28.64c.5-1.57,2.53-2.58,3.77-2.52,1.38.07,2.9,1,3.53,2.45l9.01,20.54,7.12-6.83c4.54-4.35,10.53-4.87,16.57-2.81l35.81,12.23c4.08,1.39,8.14,1.43,12.14,3.28-8.71,1.86-16.92.21-24.94-2.23l-25.01-7.63c-3.99-1.22-9.23-.48-11.93,2.82-2.49,3.04-8.04,10.05-11.92,8.89-1-.3-2.56-1.98-2.98-3l-5.49-13.21c-.69-1.94-1.45-2.53-2.28-1.77-2.59,7.62-4.95,15.29-7.08,23.03l-2.58,7.74c-.56,1.67-2.38,2.27-3.88,2.16-3.65-.29-4.04-6.34-5-9.44l-9.23-29.95c-1.9,5.91-2.08,11.45-2.92,17.16l-.99,6.72-.96,6.82-1.31,9.65-2.12,13.45c-.27,1.71-.88,3.3-2.23,3.86s-3.72.74-4.58-.58c-1.35-2.07-1.37-4.4-1.76-6.79l-8.04-49.32-3.27-20.28-1.31-7.87c-1.61,2.91-1.36,5.83-1.82,8.84l-1.57,10.15-1.17,9.17-1.02,6.71-1.03,7.79-.98,6.8-1.21,10.27-1.92,13.29c-.29,2.04-2.87,2.64-4.63,2.29-1.54-.31-2.48-1.86-2.89-3.72l-6.28-28.41-3.89-16.33c-.47-1.96-.35-4.14-2.08-5.58l-5.8,22.55c-.51,2-2.07,3.24-3.57,3.48-2,.32-3.4-.29-4.77-1.67l-6.7-6.77c-1.49-1.5-3.34-1.84-5.18-.73-3.81,2.31-7.47,4.69-11.61,6.5-6.79,2.96-14.39,3.12-21.04-.02-1.01-.48-1.75-1.06-2.7-.96l-1.03-2.18c1.7-1.02,3.71-.2,5.75-.07,10.5.65,11.76.69,20.39-4.26,5.57-3.19,13.14-10.11,19.55-2.97.44.49,4.5,4.54,4.78,4.59.22.04.72-.41.81-.77l7.57-29.68c.48-1.87,1.88-3.56,3.57-3.64,2.02-.1,3.81,1.13,4.34,3.3l10.87,45.15c1.04-.17,2.19-11.78,2.42-13.52l7.86-61.26c.34-2.68,1.51-4.47,4.15-4.53,2.2-.05,3.76,1.83,4,4.35s.92,4.98,1.33,7.39Z"/>
    <path class="cls-14" d="M218.86,145.75c-.31-1.05-1.33-1.89-1.36-3.55-.03-1.42-1.18-2.84-2.08-3.36-1.02-.58-3.39-.93-4.2.23-1.67,2.38-1.47,5.32-1.87,8.05l-2.92,19.85-3.49,23.65c-1.18,1.44-2.32-6.99-2.52-8.2l-1.1-6.68-3.35-20.16-1.34-8.53-3.95-24.55c-.45-2.79-1.15-5.32-.88-7.94l7.26,43.06,4.27,25.35c.24,1.41-.03,3.04,1.47,4.11l6.47-45.7c.25-1.78,1.42-3.41,2.77-3.8,1.53-.45,3.69.15,4.77,1.5,1.46,1.83,1.81,4.51,2.06,6.69Z"/>
    <path class="cls-32" d="M244.79,164.42c-.82-.13-.68-1.27-1.81-1.88l-7.55,23.13c-.13-1.17.15-2.33.56-3.64l6.03-19.33c.38-1.22,1.57-.89,2.04-.5.82.68.44,1.52.73,2.21Z"/>
    <path class="cls-27" d="M116.15,228.74c.8,8.75-6.27,15.93-15.11,14.99-3.41-.36-7.83-1.64-9.32-5.26L1.21,18.01C-.46,13.93-.57,10.28,1.95,6.46,6.86-.96,17.47-2.21,24.09,3.88l92.06,224.86Z"/>
    <path class="cls-16" d="M75.32,158.57l-1.61.66c-1.29.74-3.42,1.23-4.68.32l-37-90.43c-.42-1.92-.18-2.36,1.71-3.32-.12-1.38,1.81-2.1,2.56-.88,1.08-.36,1.85-.3,2.31.2l36.75,89.46c.98,1.7.97,3.03-.04,3.98Z"/>
    <path class="cls-36" d="M41.3,63.65l31.39,76.74c1.94,4.75,4.12,8.85,5.62,13.73.62,2.01-1.63,3.89-2.99,4.44-.22-2.8-1.71-5.15-2.89-8.02l-27.07-66.14-7.85-19.21c-.15-.38-1.09-.17-1.21-.26-.15-1.05.11-1.61.84-.87.85.1,1.62,0,2.32-.3-.71-1.91.98-1.73,1.84-.11Z"/>
    <path class="cls-3" d="M33.74,65.8c-1.61,1.14-1,2.35-.28,4.11l36.67,89.58c1.46.47,2.49-.06,3.58-.27-1.75,1.78-4.85,1.14-7.47.51l-27.01-66.13-9.61-23.59c-1-2.16-.49-4.52,1.98-3.14.27-1.78.7-2.47,2.14-1.07Z"/>
    <path class="cls-2" d="M39.46,63.76c-1.27,1.45.11-.32-3.16,1.16-.79.36-1.7.76-2.56.88s-1.51.43-2.14,1.07l-.96-.6L8.63,13c-.27-1.22-.19-2.52.34-3.68.38-.51,1.28-1.43,1.93-1.51,1.22-.37,3.39-.63,4.36.35l22.32,54.42c1.03-.02,1.65.37,1.86,1.17Z"/>
    <path class="cls-44" d="M41.3,63.65c-.52-.36-1.39-.41-1.84.11-.75-.02-1.49.11-2.58-.19L14.17,8.23c-.38-.93-2.48-.51-3.27-.42,2.08-1.04,6.94-.66,8.12,2.18l15.48,37.39,6.79,16.27Z"/>
    <path class="cls-6" d="M31.61,66.88c-.53.55-1.51.64-1.85,1.1-.5.68-.3,1.47-.13,2.04l-10.73-26.05-9.69-23.53c-1.49-3.63-2.54-8.03-.23-11.11-.28,1.3.24,2.37.84,3.8l21.41,51.6c.37.88.57,1.48.38,2.16Z"/>
    <path class="cls-29" d="M91.26,197.07c-.68.68-1.55.61-1.99,1-3.87,2.46-5.41-1.83-6.38-5.07-1.47-2.76-1.23-4.35.72-4.78,1.5-.43,2.53-1.01,3.68-1.48,2.09.31,4.58,6.41,4.62,8.27.02.79-.25,1.36-.64,2.05Z"/>
    <path class="cls-38" d="M83.1,177.89c-.5.25-.91.34-1.07.5-1.49.8-3.2,1.63-4.85.72-.37-.21-3.28-7.06-3.39-7.77-.23-1.55-.17-1.92,1.43-2.34,1.25-.12,2.16-.61,3.08-.97l1.73-.8c1.18.97,4.37,8.73,3.95,9.54-.22.42-.55.78-.88,1.12Z"/>
    <path class="cls-37" d="M83.1,177.89c.12-1.03-.18-2.06-.63-3.18l-2.4-5.92c-.34-.84-1.12-1.01-1.77-.75,1.71-1.16,2.5-2.52,4.21-4.06,1.34,3.46,2.75,6.46,3.61,9.86.46,1.82-1.73,3.41-3.02,4.06Z"/>
    <path class="cls-22" d="M91.26,197.07c-.57-3.62-2.19-7.14-3.98-10.32l3.17-3.85c3.12,10.18,6.18,8.8.81,14.17Z"/>
    <path class="cls-42" d="M83.6,188.22c-2.34.34,2.19,8.31,2.82,10.17,1.11.17,1.95-.29,2.84-.32-1.59,1.41-5.41,1.73-6.75.04-2.23-2.8-2.71-6.51-4.3-9.6,2.33.09,3.72.19,5.39-.29Z"/>
    <path class="cls-25" d="M75.21,169c-.42.53-.71,1.53-.31,2.43l3.15,7.14c.62,1.4,2.98-.07,3.97-.19-1.75,1.72-5.96,2.27-7.58.35-2.13-2.54-2.25-6.23-4.12-9.27l4.89-.46Z"/>
    <path class="cls-27" d="M393.08,172.21c.01,1.75.23,3.6-.07,5.62l-21.88.47c-1.03.02-.91,3.64.09,3.65l14.96.2c.75,1.03.41,2.7,1.08,3.48,1.71,1.98,3.84.59,5.81.04,6.51-1.82,13.42-2.04,20.1-1.05,2.11.31,3.78,1.89,5.99,1.97,17.37.66,33.39,9.26,43.49,23.4,6.07,8.5,10.4,17.71,10.59,28.19l.32,17.45c2.99.22,5.05,2.26,5.05,5.2l-.04,12.78c-.01,3.83-2.91,4.48-5.81,5.25-14.63,3.88-23.75,3.73-38.27.24-2.84-.68-6.28-1.07-6.47-4.95-.21-4.26-.17-8.86-.07-13.27.07-2.87,2.11-4.91,5.18-5.36.17-5.15.53-10.14-.24-15.33-1.19-7.96-8.98-15.95-16.26-13.83l-4.35,1.27s-14.64,1.68-20.2-2.56c-.48-.37-.63-.5-1.55-.51l-27.84-.23c-3.67-.03-7.13-.2-10.8-.05l-10.46.44-3.38,1.85-18.63.05c-1.38,0-3.22-1.95-3.56-3.17-1.04-.55-1.56-1.31-1.57-2.27-.1-2.3-.1-4.64,0-7.02-.46-6.45-.54-13.14.4-19.53-1.14-3.99.33-7.17,3.74-9.58.5.1,1.14-1.02,2.09-1l14.95.27c2.24.04,9.91,3.74,13.01,1.86.5-1.2.82-2.47.95-3.81,4.53-.08,9-.51,13.42-1.3l.19-1.79c-2.31.08-4.32-.29-6.04-1.09-4.91.06-9.81-.04-14.7-.32-.53-2.07-.34-4.23-.03-6.33l13.29-.2c1.85-1.25,5.82-.91,7.75.22,9.83.05,19.65.09,29.46.14l.35.53Z"/>
    <path class="cls-4" d="M348.45,186.17c.07-1.37.3-2.91.9-4.21,2.75-.12,5.24.45,7.66-.37.85-.29.69-2.38.6-3.01-5.28-.82-10.47.63-15.34-.72,6.95.17,13.94-.37,21.13.39,1.03.11.88,3.57-.34,3.78-4.58.78-8.92.39-13.52.52-.03,1.53.04,2.94-1.1,3.63Z"/>
    <path class="cls-28" d="M467.24,255.6c-.01.42.09.93-.32,1.04-1.53.41-13.77-.24-16.41-.32l-11.07-.31c-.17-3.86-.22-7.44-.07-11.29.45-11.63-7.36-22.03-18.84-24.31-2-.4-3.83-.16-5.7-1.03-.81-3.35-1.87-6.58-1.51-9.81,19.98-1.59,37.45,13.72,37.71,34.16l.15,11.99,16.05-.11Z"/>
    <path class="cls-7" d="M337.57,200.63l.17,8.73h51.66c.21-4.62-.47-9.05,1.1-13.4-.07,1.63-.9,13.52-.81,14.62l.67,8.14h-51.47c-1.72-6.19-2.55-12.4-1.32-18.1Z"/>
    <path class="cls-41" d="M332.96,217.26c.26.67.53,3.31.14,3.71s-10-.08-11.43-.16l-.74-3.58c2.86-.94,6-1.26,9.41-.94l-.68-5.37-9.54-.09c-.9-.85-.36-9.51-.11-11.22l.07-.41.9-.59c1.16.76,9.41.69,9.81.24.09-.1.08-1.64-.03-1.73-.36-.31-8.3-.17-9.53.15l-.94-.75c.16-1.99.55-4.06,1.27-6.14l12.34-.23c-2.04,9.31-.92,18.25-.94,27.11Z"/>
    <path class="cls-34" d="M471.83,273.19l-1.03-.47.07-10.25c-1.31-.16-2.64-.15-4,.04l-.72-1.03c-.55,1.49-3.98,1.31-4.69,0-.43,1.74-3.62,1.02-4.6-.16-2.47.17-4.89.34-7.26.5l.81,1.06c.1.62.07,9.11-.2,9.5s-.67.65-1.13.79c-4.89.05-9.7.29-15.06.05l.19-12.1,16.42-.18,21.79-.17v11.94c0,.4-.31.7-.58.46Z"/>
    <path class="cls-35" d="M397.73,196.01c.56.64.74,1.55.56,2.76,2.83.33,5.71.46,8.63.38,0-1.7.58-2.41,1.76-2.11-.62,8.59-.8,16.55,1.18,24.78l-10.59.12c-.91.01-1.55-.22-2.1-.67s-.15-1.38-.47-1.86c-.87-2.2.09-2.97,2.3-2.92l7.29.23c.02-1.89-.18-3.83-.6-5.84l.92-.86c-3.53-.28-7.07-.38-10.64-.29-.15-2.36-.08-4.68.21-6.96l-.46-.23.42-5c.29-1.15-.05-2.06.61-2.67.69-2.04,2.89.17.97,1.16Z"/>
    <path class="cls-45" d="M461.46,261.5l.85.81c.14.61.46,9.64.22,10.08-.22.4-.69.59-1.11.74-4.12.02-8.24,0-12.35.05.55-3.78-.54-7.7.53-11.35,2.37-.14,4.8-.3,7.26-.5,1.31-.58,3.24.41,4.6.16Z"/>
    <path class="cls-8" d="M387.42,192.36c-1.61.27-3.17-.34-4.95-.34l-26.68-.11c-1.06,0-1.99-.83-3.2-.02,1.17-1.12,2.38-2.07,2.9-4.07l23.56-.03c.96,0,1.63,1.32,2,1.95,2.29,3.85,5.17,1.02,6.37,2.62Z"/>
    <path class="cls-13" d="M332.96,217.26c.75.88.88,3.25.1,4.13h-11.51c-1.96-5.93-2.48-11.87-2.05-18.11.09-1.37-.52-2.84.52-3.66l-.02,10.25,10.56.03c.49,2.34.64,4.77.88,7.34-3.31.37-6.17-.17-9.3.37-1.16.2-.85,1.63-.56,2.49.27.8,1.34,1.05,2.42.72,4.43-1.37,4.96.57,8.96.03v-3.58Z"/>
    <path class="cls-23" d="M396.19,202.75c-.41,2.09-.47,4.98.09,6.96,3.46-.08,6.9,0,10.34.28l1.08,7.44c-3.69,1.34-12.02-1.72-11,1.95-1-1.49-.71-3.08-.97-4.75-.91-5.85-.97-11.65.43-17.12l.03,5.23Z"/>
    <path class="cls-11" d="M471.83,273.19c-1.81.37-3.75-.09-5.54-.08-.41-.11-1.01-.27-1.04-.59-.15-1.36-.26-10.15.22-10.67.16-.18.41-.28.69-.36,1.82.04,3.63-.41,5.76-.08l-.08,11.78Z"/>
    <path class="cls-40" d="M409.68,191.98l-.99.22-.83,4.39c-1.08.87-8.95,1.05-10.13-.58.15-.28-.16-.77-.33-1.04-.16-.25-.35-.41-.63-.12-.09-1.23-.05-3.54.99-4.34l11.98-.19c.68-.01.49.82.41,1.2-.04.2-.23.3-.46.46Z"/>
    <path class="cls-18" d="M466.15,261.49l.14,11.61-4.87.03c.5-3.99-.91-8.76.04-11.64,1.58-.3,3.11-.04,4.69,0Z"/>
    <path class="cls-17" d="M409.68,191.98c-.76,1.77-.88,3.41-1,5.05-1.35,1.04-.82,10.12-1.28,12.98-.84-3.12.06-6.37-.32-9.77-3.07-.54-6.15.42-9.03-.47-1.4-.43-.82-2.85-.31-3.76,3.1.02,6.3.21,9.58-.11.39-1.81-.02-3.89,1.31-5.04.47-.41,1.26.91,1.05,1.13Z"/>
    <path class="cls-39" d="M320.08,199.2l.22-2.68c1.74-.97,8.75-.47,11.43-.4.24,1.37.14,2.56-.02,3.88-2.64.02-10.23.81-11.63-.8Z"/>
    <path class="cls-26" d="M467.24,255.6c-.02.18-.06.34-.15.45-.55.64-16.21.32-16.79-.29.1-16.04-.7-30.49-16.02-40.09-5.83-3.65-12.6-5.44-19.48-5.16l-1.46-.95c-.47-4.28.42-13.08,2.1-16.69,26.05-1.21,48.48,19.19,51.61,44.76.75,6.09.4,12.08.2,17.97Z"/>
    <path class="cls-46" d="M451.4,211.78c1.82,2.04,9.75,12.44,6.21,13.64-.61.21-1.4-.14-1.84-.81-8.74-13.3-10.72-15.14-25.8-23.64,8.53-.06,16.05,4.75,21.44,10.81Z"/>
    <path class="cls-15" d="M462.88,237.25c-.17,1.09-.9,1.63-1.6,1.65-2.52.04-2.99-7.04-.84-6.99s2.68,3.8,2.44,5.35Z"/>
    <path class="cls-9" d="M387.42,192.36c1.14-.19,2.67-.09,3.36.29.56.83.04,2.44-.28,3.32-.67,4.46-.99,8.95-.95,13.48l-.51.94-51.14-.04c-.73-3.06-.85-6.3-.34-9.72-.05-2.73.5-5.48,1.57-8.18l9.93-.07c1.32,0,2.44-.4,3.52-.5,1.06-1.01,2.15-1.35,3.25-1.02l25.27.1c1.9.88,4,1.35,6.3,1.39Z"/>
    <path class="cls-12" d="M381.25,200.04h-32.23s-6.17-.46-6.17-.46c-.88-.07-1.59-1.17-1.48-1.72.13-.64,1-1.34,1.97-1.33l38.21.09c.98,0,1.56,1.18,1.6,1.74s-.67,1.68-1.9,1.68Z"/>
    <path class="cls-11" d="M456.86,261.35c-2.3,1.02-4.79.36-7.26.5-.25-.34.09-.47.51-.47l6.75-.03Z"/>
    <path class="cls-40" d="M406.62,210h-10.93s0-6.71,0-6.71c0-.36.27-.6.49-.54l.03,6.67c3.65.53,7.22-.69,10.4.58Z"/>
    <path class="cls-29" d="M99.29,216.2c-.68.68-1.55.61-1.99,1-3.87,2.46-5.41-1.83-6.38-5.07-1.47-2.76-1.23-4.35.72-4.78,1.5-.43,2.53-1.01,3.68-1.48,2.09.31,4.58,6.41,4.62,8.27.02.79-.25,1.36-.64,2.05Z"/>
    <path class="cls-22" d="M99.29,216.2c-.57-3.62-2.19-7.14-3.98-10.32l3.17-3.85c3.12,10.18,6.18,8.8.81,14.17Z"/>
    <path class="cls-42" d="M91.63,207.36c-2.34.34,2.19,8.31,2.82,10.17,1.11.17,1.95-.29,2.84-.32-1.59,1.41-5.41,1.73-6.75.04-2.23-2.8-2.71-6.51-4.3-9.6,2.33.09,3.72.19,5.39-.29Z"/>
    <path class="cls-29" d="M107.28,234.17c-.68.68-1.55.61-1.99,1-3.87,2.46-5.41-1.83-6.38-5.07-1.47-2.76-1.23-4.35.72-4.78,1.5-.43,2.53-1.01,3.68-1.48,2.09.31,4.58,6.41,4.62,8.27.02.79-.25,1.36-.64,2.05Z"/>
    <path class="cls-22" d="M107.28,234.17c-.57-3.62-2.19-7.14-3.98-10.32l3.17-3.85c3.12,10.18,6.18,8.8.81,14.17Z"/>
    <path class="cls-42" d="M99.62,225.32c-2.34.34,2.19,8.31,2.82,10.17,1.11.17,1.95-.29,2.84-.32-1.59,1.41-5.41,1.73-6.75.04-2.23-2.8-2.71-6.51-4.3-9.6,2.33.09,3.72.19,5.39-.29Z"/>
  </g>
</svg>
